ffmpeg version 3.4.8-0ubuntu0.2 Copyright (c) 2000-2020 the FFmpeg developers
  built with gcc 7 (Ubuntu 7.5.0-3ubuntu1~18.04)
  configuration: --prefix=/usr --extra-version=0ubuntu0.2 --toolchain=hardened --libdir=/usr/lib/x86_64-linux-gnu --incdir=/usr/include/x86_64-linux-gnu --enable-gpl --disable-stripping --enable-avresample --enable-avisynth --enable-gnutls --enable-ladspa --enable-libass --enable-libbluray --enable-libbs2b --enable-libcaca --enable-libcdio --enable-libflite --enable-libfontconfig --enable-libfreetype --enable-libfribidi --enable-libgme --enable-libgsm --enable-libmp3lame --enable-libmysofa --enable-libopenjpeg --enable-libopenmpt --enable-libopus --enable-libpulse --enable-librubberband --enable-librsvg --enable-libshine --enable-libsnappy --enable-libsoxr --enable-libspeex --enable-libssh --enable-libtheora --enable-libtwolame --enable-libvorbis --enable-libvpx --enable-libwavpack --enable-libwebp --enable-libx265 --enable-libxml2 --enable-libxvid --enable-libzmq --enable-libzvbi --enable-omx --enable-openal --enable-opengl --enable-sdl2 --enable-libdc1394 --enable-libdrm --enable-libiec61883 --enable-chromaprint --enable-frei0r --enable-libopencv --enable-libx264 --enable-shared
  libavutil      55. 78.100 / 55. 78.100
  libavcodec     57.107.100 / 57.107.100
  libavformat    57. 83.100 / 57. 83.100
  libavdevice    57. 10.100 / 57. 10.100
  libavfilter     6.107.100 /  6.107.100
  libavresample   3.  7.  0 /  3.  7.  0
  libswscale      4.  8.100 /  4.  8.100
  libswresample   2.  9.100 /  2.  9.100
  libpostproc    54.  7.100 / 54.  7.100
[rawvideo @ 0x56099e20fa20] Estimating duration from bitrate, this may be inaccurate
Input #0, rawvideo, from '../../SVC-Encoder-20220109T061506Z-001/SVC-Encoder/Dataset/RollerCoaster/6f_2x2/tile_yuv/f3_t0_480x480.yuv':
  Duration: 00:00:10.00, start: 0.000000, bitrate: 82944 kb/s
    Stream #0:0: Video: rawvideo (I420 / 0x30323449), yuv420p, 480x480, 82944 kb/s, 30 tbr, 30 tbn, 30 tbc
Stream mapping:
  Stream #0:0 -> #0:0 (rawvideo (native) -> h264 (libx264))
Press [q] to stop, [?] for help
[libx264 @ 0x56099e21cc60] using cpu capabilities: MMX2 SSE2Fast LZCNT SSSE3 SSE4.2 AVX
[libx264 @ 0x56099e21cc60] profile High, level 3.0
Output #0, rawvideo, to 'RollerCoaster_f3_t0_480x480_x264_QP_36.h264':
  Metadata:
    encoder         : Lavf57.83.100
    Stream #0:0: Video: h264 (libx264), yuv420p, 480x480, q=-1--1, 30 fps, 30 tbn, 30 tbc
    Metadata:
      encoder         : Lavc57.107.100 libx264
    Side data:
      cpb: bitrate max/min/avg: 0/0/0 buffer size: 0 vbv_delay: -1
frame=  184 fps=0.0 q=42.0 PSNR=Y:nan U:nan V:nan *:nan size=      37kB time=00:00:04.70 bitrate=  64.0kbits/s speed=9.37x    frame=  300 fps=0.0 q=42.0 LPSNR=Y:inf U:inf V:inf *:inf size=      77kB time=00:00:09.93 bitrate=  63.1kbits/s speed=10.5x    
video:77kB audio:0kB subtitle:0kB other streams:0kB global headers:0kB muxing overhead: 0.000000%
[libx264 @ 0x56099e21cc60] frame I:2     Avg QP:33.66  size:  9856  PSNR Mean Y:36.88 U:42.90 V:40.71 Avg:37.97 Global:37.89
[libx264 @ 0x56099e21cc60] frame P:76    Avg QP:35.30  size:   447  PSNR Mean Y:35.62 U:42.36 V:40.11 Avg:36.81 Global:36.79
[libx264 @ 0x56099e21cc60] frame B:222   Avg QP:41.57  size:   111  PSNR Mean Y:35.45 U:42.30 V:40.08 Avg:36.65 Global:36.64
[libx264 @ 0x56099e21cc60] consecutive B-frames:  1.3%  0.0%  0.0% 98.7%
[libx264 @ 0x56099e21cc60] mb I  I16..4: 29.9% 53.4% 16.7%
[libx264 @ 0x56099e21cc60] mb P  I16..4:  0.5%  0.5%  0.0%  P16..4: 24.0%  1.1%  0.2%  0.0%  0.0%    skip:73.7%
[libx264 @ 0x56099e21cc60] mb B  I16..4:  0.0%  0.0%  0.0%  B16..8: 11.8%  0.0%  0.0%  direct: 0.0%  skip:88.2%  L0:46.6% L1:53.3% BI: 0.0%
[libx264 @ 0x56099e21cc60] 8x8 transform intra:51.3% inter:89.5%
[libx264 @ 0x56099e21cc60] coded y,uvDC,uvAC intra: 35.1% 50.9% 21.0% inter: 0.4% 0.7% 0.0%
[libx264 @ 0x56099e21cc60] i16 v,h,dc,p: 42% 26% 17% 15%
[libx264 @ 0x56099e21cc60] i8 v,h,dc,ddl,ddr,vr,hd,vl,hu: 19% 12% 41%  5%  4%  5%  5%  5%  4%
[libx264 @ 0x56099e21cc60] i4 v,h,dc,ddl,ddr,vr,hd,vl,hu: 30% 14% 17%  4%  9% 12%  6%  4%  3%
[libx264 @ 0x56099e21cc60] i8c dc,h,v,p: 56% 16% 20%  8%
[libx264 @ 0x56099e21cc60] Weighted P-Frames: Y:1.3% UV:0.0%
[libx264 @ 0x56099e21cc60] ref P L0: 57.0% 17.4% 17.3%  8.2%  0.1%
[libx264 @ 0x56099e21cc60] ref B L0: 53.5% 38.4%  8.1%
[libx264 @ 0x56099e21cc60] ref B L1: 67.5% 32.5%
[libx264 @ 0x56099e21cc60] PSNR Mean Y:35.505 U:42.318 V:40.091 Avg:36.700 Global:36.681 kb/s:62.68
